<svg xmlns="http://www.w3.org/2000/svg" xmlns:xlink="http://www.w3.org/1999/xlink" version="1.1" x="0px" y="0px" viewBox="0 0 100 125" enable-background="new 0 0 100 100" xml:space="preserve"><g><polygon points="44.859,58.411 55.325,58.368 59.37,48.578 50.41,41.285 41.103,50.797  "/><path d="M51.626,38.694l9.638,7.842l3.543-1.576l2.689-1.196c-0.014-0.04-0.031-0.08-0.047-0.123   c-2.806-6.924-9.22-11.716-16.62-12.543l0.117,1.12L51.626,38.694z"/><path d="M48.856,38.904l-0.831-7.928c-2.481,0.058-4.898,0.557-7.2,1.489c-5.89,2.389-10.317,7.343-12.045,13.396l10.24,3.093   L48.856,38.904z"/><path d="M42.339,59.578l-3.896-7.896l-10.241-3.097c-0.99,6.927,1.87,14.209,7.397,18.622l6.742-7.625L42.339,59.578z"/><path d="M91.304,29.436c-2.846-7.151-18.179-6.917-26.398-1.249c-1.338-0.938-2.75-1.761-4.224-2.453   c0.041-0.143,0.082-0.284,0.123-0.435c1.039-3.816-1.344-12.796-5.041-14.578c-2.909-1.404-7.972,6.569-10.307,12.482   c-2.552,0.282-5.11,0.907-7.609,1.919c-5.67,2.297-10.194,6.208-13.267,10.977c-0.767-0.167-1.777-0.335-3.098-0.461   C17.541,35.265,9.1,39.135,7.97,43.085c-0.98,3.426,6.754,6.123,12.125,6.626c-0.254,4.076,0.375,8.267,2.008,12.299   c1.769,4.368,4.515,8.044,7.881,10.896c-2.089,6.011-3.459,15.585-0.294,16.406c3.973,1.03,11.597-4.268,13.277-7.856   c0.394-0.84,0.688-1.553,0.917-2.166c4.959,0.792,10.197,0.282,15.2-1.744c2.767-1.121,5.261-2.627,7.449-4.428   c5.792,2.408,14.002,4.195,15.047,1.335c1.386-3.769-2.934-11.608-6.313-13.827c0.905-2.562,1.445-5.254,1.583-7.996   C90.59,48.768,93.893,35.937,91.304,29.436z M85.289,36.837c0.903-0.477,2.022-0.127,2.497,0.777   c0.475,0.907,0.128,2.024-0.779,2.501c-0.905,0.473-2.024,0.123-2.497-0.78C84.035,38.427,84.382,37.31,85.289,36.837z    M79.914,26.596c0.905-0.473,2.024-0.127,2.497,0.781c0.477,0.904,0.128,2.024-0.777,2.497c-0.905,0.473-2.024,0.126-2.499-0.777   C78.662,28.189,79.007,27.073,79.914,26.596z M62.946,69.339l-0.967,0.752l-1.328,0.842c-1.144,0.712-2.309,1.355-3.5,1.839   c-6.982,2.826-14.762,2.082-21.093-1.893l-1.066-0.658l-1.23-0.932c-3.034-2.454-5.39-5.612-6.852-9.222   c-1.588-3.921-2.051-8.142-1.38-12.29l0.228-1.265l0.408-1.442c1.971-6.852,6.944-12.475,13.617-15.174   c2.546-1.034,5.218-1.568,7.956-1.659l1.585-0.029l1.212,0.087c8.655,0.741,16.222,6.248,19.487,14.307   c0.006,0.011,0.432,1.225,0.432,1.225c0.002,0.004,0.002,0.007,0.004,0.011l0.427,1.46C73.282,54.186,70.186,63.571,62.946,69.339z   "/><path d="M62.12,49.192l-4.335,10.483l3.836,7.181c5.977-5.005,8.568-12.89,6.705-20.425L62.12,49.192z"/><path d="M44.626,61.186L37.896,68.8c5.505,3.296,12.204,3.831,18.213,1.399c1.1-0.448,2.188-1.012,3.249-1.688l-3.935-7.368   L44.626,61.186z"/></g><text x="0" y="115" fill="#000000" font-size="5px" font-weight="bold" font-family="'Helvetica Neue', Helvetica, Arial-Unicode, Arial, Sans-serif">Created by Carla Dias</text><text x="0" y="120" fill="#000000" font-size="5px" font-weight="bold" font-family="'Helvetica Neue', Helvetica, Arial-Unicode, Arial, Sans-serif">from the Noun Project</text></svg>